<?xml version="1.0" encoding="UTF-8"?>
<svg xmlns="http://www.w3.org/2000/svg" version="1.1" width="400" height="400" viewBox="0 0 400 400"><rect x="0" y="0" width="400" height="400" fill="#ffffff"/><g transform="scale(6.557)"><g transform="translate(2,2)"><path fill-rule="evenodd" d="M9 0L9 1L11 1L11 2L9 2L9 3L12 3L12 2L13 2L13 4L15 4L15 6L14 6L14 5L11 5L11 6L10 6L10 5L9 5L9 4L8 4L8 5L9 5L9 6L8 6L8 8L6 8L6 9L4 9L4 8L2 8L2 11L0 11L0 16L1 16L1 17L0 17L0 21L2 21L2 22L4 22L4 23L3 23L3 25L2 25L2 23L1 23L1 26L0 26L0 27L2 27L2 30L0 30L0 31L3 31L3 32L0 32L0 35L1 35L1 36L0 36L0 37L4 37L4 36L6 36L6 37L5 37L5 38L4 38L4 39L3 39L3 38L1 38L1 39L0 39L0 43L1 43L1 41L2 41L2 43L3 43L3 45L2 45L2 44L1 44L1 45L0 45L0 48L5 48L5 47L8 47L8 46L5 46L5 47L3 47L3 46L4 46L4 44L5 44L5 45L7 45L7 44L8 44L8 45L10 45L10 44L8 44L8 42L5 42L5 41L8 41L8 40L9 40L9 42L10 42L10 43L11 43L11 45L12 45L12 43L11 43L11 42L12 42L12 40L15 40L15 42L14 42L14 43L13 43L13 44L14 44L14 45L13 45L13 47L9 47L9 48L13 48L13 50L10 50L10 51L9 51L9 49L8 49L8 48L6 48L6 49L8 49L8 51L9 51L9 53L8 53L8 55L9 55L9 54L10 54L10 56L9 56L9 57L10 57L10 56L11 56L11 57L14 57L14 56L15 56L15 55L14 55L14 56L13 56L13 54L14 54L14 53L15 53L15 54L18 54L18 53L17 53L17 52L18 52L18 51L21 51L21 50L22 50L22 49L21 49L21 50L18 50L18 51L17 51L17 52L16 52L16 50L15 50L15 52L13 52L13 50L14 50L14 49L16 49L16 48L14 48L14 47L15 47L15 45L16 45L16 46L17 46L17 47L18 47L18 48L17 48L17 49L19 49L19 48L20 48L20 47L21 47L21 48L22 48L22 46L24 46L24 47L26 47L26 50L25 50L25 52L23 52L23 51L22 51L22 52L21 52L21 54L22 54L22 52L23 52L23 54L24 54L24 53L25 53L25 54L26 54L26 53L29 53L29 54L27 54L27 55L25 55L25 56L23 56L23 55L22 55L22 56L23 56L23 57L25 57L25 56L30 56L30 57L32 57L32 56L33 56L33 57L40 57L40 56L39 56L39 55L34 55L34 56L33 56L33 53L34 53L34 54L37 54L37 53L38 53L38 54L41 54L41 53L43 53L43 55L42 55L42 57L43 57L43 55L44 55L44 53L45 53L45 54L47 54L47 53L48 53L48 56L49 56L49 57L51 57L51 55L50 55L50 53L51 53L51 54L52 54L52 53L53 53L53 55L55 55L55 54L56 54L56 52L57 52L57 51L56 51L56 52L55 52L55 51L53 51L53 48L54 48L54 47L53 47L53 46L55 46L55 47L56 47L56 48L55 48L55 49L54 49L54 50L56 50L56 49L57 49L57 43L56 43L56 42L57 42L57 39L56 39L56 38L55 38L55 39L53 39L53 40L52 40L52 38L51 38L51 37L49 37L49 34L50 34L50 36L51 36L51 34L52 34L52 37L53 37L53 38L54 38L54 36L53 36L53 34L54 34L54 35L55 35L55 37L56 37L56 35L57 35L57 32L56 32L56 30L57 30L57 28L55 28L55 27L53 27L53 26L54 26L54 23L53 23L53 25L52 25L52 24L50 24L50 25L49 25L49 26L47 26L47 27L48 27L48 30L47 30L47 28L46 28L46 26L45 26L45 25L46 25L46 24L47 24L47 25L48 25L48 24L47 24L47 23L50 23L50 22L49 22L49 21L50 21L50 20L51 20L51 21L53 21L53 19L54 19L54 18L53 18L53 19L52 19L52 18L50 18L50 19L49 19L49 18L47 18L47 16L48 16L48 17L52 17L52 16L53 16L53 17L55 17L55 19L56 19L56 18L57 18L57 17L56 17L56 14L54 14L54 13L53 13L53 14L51 14L51 13L49 13L49 16L48 16L48 14L47 14L47 16L46 16L46 14L45 14L45 13L44 13L44 12L45 12L45 11L44 11L44 10L46 10L46 13L47 13L47 12L48 12L48 11L47 11L47 10L50 10L50 9L51 9L51 12L52 12L52 9L53 9L53 10L54 10L54 9L53 9L53 8L52 8L52 9L51 9L51 8L48 8L48 7L49 7L49 6L48 6L48 7L47 7L47 5L48 5L48 0L46 0L46 1L45 1L45 0L39 0L39 3L38 3L38 0L34 0L34 1L33 1L33 0L26 0L26 1L24 1L24 0L21 0L21 1L20 1L20 0L19 0L19 1L16 1L16 0ZM13 1L13 2L14 2L14 1ZM22 1L22 2L23 2L23 3L21 3L21 2L19 2L19 4L21 4L21 7L22 7L22 9L23 9L23 11L22 11L22 10L21 10L21 8L18 8L18 6L17 6L17 5L18 5L18 2L15 2L15 3L16 3L16 6L15 6L15 7L14 7L14 6L13 6L13 7L12 7L12 6L11 6L11 7L10 7L10 6L9 6L9 7L10 7L10 9L11 9L11 10L12 10L12 9L13 9L13 10L14 10L14 11L15 11L15 12L16 12L16 13L17 13L17 15L16 15L16 14L15 14L15 15L14 15L14 13L13 13L13 12L12 12L12 14L10 14L10 12L11 12L11 11L10 11L10 10L9 10L9 9L8 9L8 11L5 11L5 10L4 10L4 11L2 11L2 12L4 12L4 13L3 13L3 14L2 14L2 13L1 13L1 16L4 16L4 17L3 17L3 18L2 18L2 17L1 17L1 18L2 18L2 19L1 19L1 20L2 20L2 19L6 19L6 20L3 20L3 21L4 21L4 22L7 22L7 23L6 23L6 24L7 24L7 23L8 23L8 25L9 25L9 26L10 26L10 27L9 27L9 30L10 30L10 31L9 31L9 32L7 32L7 31L6 31L6 32L7 32L7 33L4 33L4 34L5 34L5 35L6 35L6 36L8 36L8 35L6 35L6 34L7 34L7 33L10 33L10 32L11 32L11 33L13 33L13 34L14 34L14 36L15 36L15 35L16 35L16 38L17 38L17 39L18 39L18 38L17 38L17 37L18 37L18 36L17 36L17 35L16 35L16 34L14 34L14 33L15 33L15 32L16 32L16 30L17 30L17 32L18 32L18 30L19 30L19 29L20 29L20 27L21 27L21 24L22 24L22 25L23 25L23 26L22 26L22 28L21 28L21 31L20 31L20 32L21 32L21 31L22 31L22 33L21 33L21 34L19 34L19 33L18 33L18 35L19 35L19 36L20 36L20 37L19 37L19 40L22 40L22 41L19 41L19 43L18 43L18 44L17 44L17 42L18 42L18 41L17 41L17 40L16 40L16 42L15 42L15 43L14 43L14 44L15 44L15 43L16 43L16 44L17 44L17 45L18 45L18 47L19 47L19 44L20 44L20 45L21 45L21 44L22 44L22 41L24 41L24 39L25 39L25 40L26 40L26 42L23 42L23 43L26 43L26 45L25 45L25 44L23 44L23 45L24 45L24 46L26 46L26 47L27 47L27 48L28 48L28 47L29 47L29 48L31 48L31 46L30 46L30 47L29 47L29 45L33 45L33 46L32 46L32 47L33 47L33 48L34 48L34 49L36 49L36 50L35 50L35 51L34 51L34 50L33 50L33 49L31 49L31 51L34 51L34 52L36 52L36 53L37 53L37 52L36 52L36 51L37 51L37 49L38 49L38 51L39 51L39 50L40 50L40 51L41 51L41 52L40 52L40 53L41 53L41 52L42 52L42 50L43 50L43 52L44 52L44 51L45 51L45 52L46 52L46 53L47 53L47 52L48 52L48 51L47 51L47 49L48 49L48 48L50 48L50 47L49 47L49 46L48 46L48 48L46 48L46 46L47 46L47 45L49 45L49 44L48 44L48 43L47 43L47 44L46 44L46 41L47 41L47 42L48 42L48 41L47 41L47 40L46 40L46 39L47 39L47 38L48 38L48 36L46 36L46 38L45 38L45 36L43 36L43 35L44 35L44 34L43 34L43 35L42 35L42 36L41 36L41 33L39 33L39 32L40 32L40 30L39 30L39 29L37 29L37 31L38 31L38 30L39 30L39 32L38 32L38 34L39 34L39 35L37 35L37 33L36 33L36 34L35 34L35 35L37 35L37 36L35 36L35 37L34 37L34 36L32 36L32 35L31 35L31 36L30 36L30 39L32 39L32 40L31 40L31 41L27 41L27 40L28 40L28 39L29 39L29 36L27 36L27 35L29 35L29 33L30 33L30 34L32 34L32 33L31 33L31 31L33 31L33 32L34 32L34 30L33 30L33 29L32 29L32 28L31 28L31 31L29 31L29 32L27 32L27 31L26 31L26 26L28 26L28 23L29 23L29 22L30 22L30 24L29 24L29 25L30 25L30 26L31 26L31 25L32 25L32 26L33 26L33 27L34 27L34 29L36 29L36 27L37 27L37 28L38 28L38 27L37 27L37 25L39 25L39 20L38 20L38 18L39 18L39 19L40 19L40 18L41 18L41 17L42 17L42 19L41 19L41 20L42 20L42 21L43 21L43 19L44 19L44 22L43 22L43 23L42 23L42 22L41 22L41 24L40 24L40 26L39 26L39 28L40 28L40 29L42 29L42 30L41 30L41 31L42 31L42 33L45 33L45 34L48 34L48 33L51 33L51 32L52 32L52 34L53 34L53 32L55 32L55 33L54 33L54 34L56 34L56 32L55 32L55 31L50 31L50 32L48 32L48 31L46 31L46 29L45 29L45 31L43 31L43 30L44 30L44 29L43 29L43 28L44 28L44 27L45 27L45 26L43 26L43 25L42 25L42 28L40 28L40 26L41 26L41 24L43 24L43 23L44 23L44 22L45 22L45 23L46 23L46 22L47 22L47 21L48 21L48 19L47 19L47 21L46 21L46 20L45 20L45 17L46 17L46 16L45 16L45 17L43 17L43 16L40 16L40 17L39 17L39 15L40 15L40 14L41 14L41 13L42 13L42 14L43 14L43 15L45 15L45 14L44 14L44 13L42 13L42 11L41 11L41 10L42 10L42 8L43 8L43 10L44 10L44 5L45 5L45 4L46 4L46 5L47 5L47 3L46 3L46 2L47 2L47 1L46 1L46 2L45 2L45 3L44 3L44 5L43 5L43 4L41 4L41 3L42 3L42 2L40 2L40 4L39 4L39 5L41 5L41 9L40 9L40 8L39 8L39 7L40 7L40 6L39 6L39 7L38 7L38 6L37 6L37 4L38 4L38 3L36 3L36 1L34 1L34 3L33 3L33 4L31 4L31 3L30 3L30 2L33 2L33 1L27 1L27 2L23 2L23 1ZM43 1L43 2L44 2L44 1ZM28 2L28 3L26 3L26 8L25 8L25 6L24 6L24 8L23 8L23 9L24 9L24 12L22 12L22 13L21 13L21 12L19 12L19 11L18 11L18 10L17 10L17 9L15 9L15 11L16 11L16 12L17 12L17 13L18 13L18 12L19 12L19 14L18 14L18 15L20 15L20 14L21 14L21 16L22 16L22 17L19 17L19 16L16 16L16 15L15 15L15 19L16 19L16 20L15 20L15 21L14 21L14 22L15 22L15 24L16 24L16 26L15 26L15 25L13 25L13 24L14 24L14 23L13 23L13 22L12 22L12 21L10 21L10 23L9 23L9 21L7 21L7 20L8 20L8 19L9 19L9 20L11 20L11 19L12 19L12 18L14 18L14 17L13 17L13 16L14 16L14 15L13 15L13 16L12 16L12 15L11 15L11 19L9 19L9 18L10 18L10 17L8 17L8 18L6 18L6 19L7 19L7 20L6 20L6 21L7 21L7 22L8 22L8 23L9 23L9 24L10 24L10 23L12 23L12 25L11 25L11 27L10 27L10 30L11 30L11 32L12 32L12 31L13 31L13 30L14 30L14 32L15 32L15 30L16 30L16 28L17 28L17 29L19 29L19 28L18 28L18 27L20 27L20 24L19 24L19 19L20 19L20 22L22 22L22 24L23 24L23 25L24 25L24 26L25 26L25 25L26 25L26 24L27 24L27 23L28 23L28 21L29 21L29 20L31 20L31 23L32 23L32 25L35 25L35 23L36 23L36 22L35 22L35 20L34 20L34 21L32 21L32 19L35 19L35 18L36 18L36 17L38 17L38 16L37 16L37 15L39 15L39 13L40 13L40 11L39 11L39 8L38 8L38 7L37 7L37 6L36 6L36 7L35 7L35 6L34 6L34 7L33 7L33 5L31 5L31 4L30 4L30 3L29 3L29 2ZM23 3L23 4L22 4L22 5L24 5L24 3ZM34 3L34 5L35 5L35 4L36 4L36 3ZM27 5L27 8L30 8L30 5ZM42 5L42 7L43 7L43 5ZM16 6L16 7L15 7L15 8L16 8L16 7L17 7L17 6ZM19 6L19 7L20 7L20 6ZM22 6L22 7L23 7L23 6ZM28 6L28 7L29 7L29 6ZM31 6L31 8L32 8L32 9L31 9L31 10L30 10L30 11L31 11L31 14L29 14L29 13L30 13L30 12L29 12L29 11L28 11L28 12L27 12L27 13L26 13L26 14L25 14L25 13L24 13L24 15L23 15L23 14L22 14L22 15L23 15L23 17L24 17L24 18L25 18L25 19L23 19L23 18L20 18L20 19L23 19L23 20L22 20L22 21L25 21L25 20L29 20L29 19L26 19L26 18L25 18L25 17L27 17L27 18L28 18L28 17L29 17L29 18L30 18L30 17L29 17L29 16L30 16L30 15L31 15L31 14L33 14L33 15L34 15L34 16L33 16L33 17L32 17L32 16L31 16L31 17L32 17L32 18L31 18L31 19L32 19L32 18L33 18L33 17L34 17L34 18L35 18L35 17L36 17L36 15L37 15L37 14L38 14L38 13L39 13L39 11L38 11L38 10L37 10L37 8L36 8L36 9L35 9L35 10L34 10L34 11L33 11L33 10L32 10L32 9L34 9L34 8L33 8L33 7L32 7L32 6ZM45 6L45 7L46 7L46 8L45 8L45 9L46 9L46 10L47 10L47 9L46 9L46 8L47 8L47 7L46 7L46 6ZM13 7L13 8L14 8L14 7ZM0 9L0 10L1 10L1 9ZM6 9L6 10L7 10L7 9ZM25 9L25 11L27 11L27 10L29 10L29 9L27 9L27 10L26 10L26 9ZM55 9L55 10L56 10L56 11L55 11L55 13L56 13L56 12L57 12L57 9ZM35 10L35 11L34 11L34 12L33 12L33 13L34 13L34 12L35 12L35 11L36 11L36 10ZM4 11L4 12L5 12L5 14L4 14L4 16L6 16L6 17L7 17L7 16L10 16L10 15L7 15L7 14L9 14L9 13L7 13L7 12L5 12L5 11ZM53 11L53 12L54 12L54 11ZM28 12L28 13L29 13L29 12ZM36 12L36 13L38 13L38 12ZM6 13L6 14L5 14L5 15L6 15L6 16L7 16L7 15L6 15L6 14L7 14L7 13ZM26 14L26 15L24 15L24 17L25 17L25 16L27 16L27 14ZM34 14L34 15L35 15L35 14ZM53 14L53 15L54 15L54 14ZM28 15L28 16L29 16L29 15ZM50 15L50 16L51 16L51 15ZM16 17L16 18L17 18L17 17ZM18 17L18 18L19 18L19 17ZM13 19L13 20L14 20L14 19ZM17 19L17 22L16 22L16 21L15 21L15 22L16 22L16 23L17 23L17 25L18 25L18 26L19 26L19 25L18 25L18 19ZM51 19L51 20L52 20L52 19ZM54 20L54 22L55 22L55 24L56 24L56 23L57 23L57 21L56 21L56 20ZM23 22L23 23L24 23L24 24L25 24L25 23L26 23L26 22L25 22L25 23L24 23L24 22ZM32 22L32 23L33 23L33 24L34 24L34 22ZM37 22L37 24L38 24L38 22ZM51 22L51 23L52 23L52 22ZM4 23L4 25L3 25L3 27L4 27L4 26L7 26L7 25L5 25L5 23ZM30 24L30 25L31 25L31 24ZM44 24L44 25L45 25L45 24ZM51 25L51 26L52 26L52 25ZM12 26L12 28L13 28L13 29L11 29L11 30L13 30L13 29L14 29L14 30L15 30L15 29L14 29L14 28L15 28L15 26ZM35 26L35 27L36 27L36 26ZM5 27L5 30L8 30L8 27ZM23 27L23 28L22 28L22 29L23 29L23 30L22 30L22 31L23 31L23 32L25 32L25 33L26 33L26 34L25 34L25 35L24 35L24 33L23 33L23 34L22 34L22 36L21 36L21 35L20 35L20 36L21 36L21 37L22 37L22 38L24 38L24 37L25 37L25 38L26 38L26 39L28 39L28 38L27 38L27 36L25 36L25 35L26 35L26 34L28 34L28 33L26 33L26 31L25 31L25 30L24 30L24 29L25 29L25 27ZM27 27L27 30L30 30L30 27ZM49 27L49 30L52 30L52 27ZM3 28L3 31L4 31L4 28ZM6 28L6 29L7 29L7 28ZM28 28L28 29L29 29L29 28ZM50 28L50 29L51 29L51 28ZM54 29L54 30L56 30L56 29ZM23 30L23 31L24 31L24 30ZM35 31L35 32L36 32L36 31ZM45 32L45 33L46 33L46 32ZM1 33L1 35L2 35L2 34L3 34L3 33ZM33 33L33 35L34 35L34 33ZM10 34L10 36L11 36L11 38L13 38L13 39L15 39L15 38L13 38L13 37L12 37L12 36L11 36L11 35L12 35L12 34ZM3 35L3 36L4 36L4 35ZM37 36L37 38L36 38L36 39L37 39L37 38L38 38L38 39L39 39L39 37L38 37L38 36ZM42 36L42 37L40 37L40 40L42 40L42 39L43 39L43 38L44 38L44 39L45 39L45 38L44 38L44 37L43 37L43 36ZM6 37L6 38L5 38L5 40L8 40L8 39L9 39L9 40L10 40L10 42L11 42L11 40L12 40L12 39L10 39L10 37L8 37L8 39L6 39L6 38L7 38L7 37ZM31 37L31 38L33 38L33 40L32 40L32 41L31 41L31 42L28 42L28 43L27 43L27 42L26 42L26 43L27 43L27 46L28 46L28 43L29 43L29 44L33 44L33 43L34 43L34 45L35 45L35 46L33 46L33 47L34 47L34 48L35 48L35 47L38 47L38 49L40 49L40 50L41 50L41 49L40 49L40 48L39 48L39 47L43 47L43 49L44 49L44 50L45 50L45 51L46 51L46 49L44 49L44 48L45 48L45 46L46 46L46 45L45 45L45 46L44 46L44 45L43 45L43 44L44 44L44 43L43 43L43 44L41 44L41 43L42 43L42 42L41 42L41 43L38 43L38 41L39 41L39 42L40 42L40 41L39 41L39 40L35 40L35 39L34 39L34 38L33 38L33 37ZM42 37L42 38L43 38L43 37ZM49 38L49 39L48 39L48 40L50 40L50 39L51 39L51 38ZM2 39L2 41L3 41L3 39ZM22 39L22 40L23 40L23 39ZM55 39L55 40L56 40L56 39ZM34 40L34 41L35 41L35 43L36 43L36 41L35 41L35 40ZM44 40L44 41L43 41L43 42L45 42L45 41L46 41L46 40ZM32 41L32 42L31 42L31 43L33 43L33 41ZM50 41L50 46L53 46L53 44L52 44L52 45L51 45L51 43L52 43L52 42L51 42L51 41ZM53 41L53 42L55 42L55 41ZM3 42L3 43L5 43L5 44L7 44L7 43L5 43L5 42ZM20 42L20 43L21 43L21 42ZM37 43L37 45L38 45L38 47L39 47L39 46L41 46L41 45L40 45L40 44L39 44L39 45L38 45L38 43ZM54 43L54 44L55 44L55 43ZM1 45L1 47L2 47L2 45ZM55 45L55 46L56 46L56 45ZM43 46L43 47L44 47L44 46ZM51 47L51 48L52 48L52 47ZM24 48L24 49L23 49L23 50L24 50L24 49L25 49L25 48ZM36 48L36 49L37 49L37 48ZM27 49L27 52L30 52L30 49ZM49 49L49 52L52 52L52 49ZM28 50L28 51L29 51L29 50ZM50 50L50 51L51 51L51 50ZM10 51L10 54L11 54L11 55L12 55L12 54L11 54L11 53L12 53L12 51ZM15 52L15 53L16 53L16 52ZM32 52L32 53L31 53L31 54L30 54L30 55L31 55L31 56L32 56L32 53L33 53L33 52ZM38 52L38 53L39 53L39 52ZM53 52L53 53L54 53L54 54L55 54L55 53L54 53L54 52ZM19 53L19 55L20 55L20 53ZM45 55L45 56L46 56L46 55ZM56 55L56 56L57 56L57 55ZM16 56L16 57L17 57L17 56ZM18 56L18 57L19 57L19 56ZM20 56L20 57L21 57L21 56ZM53 56L53 57L55 57L55 56ZM0 0L0 7L7 7L7 0ZM1 1L1 6L6 6L6 1ZM2 2L2 5L5 5L5 2ZM50 0L50 7L57 7L57 0ZM51 1L51 6L56 6L56 1ZM52 2L52 5L55 5L55 2ZM0 50L0 57L7 57L7 50ZM1 51L1 56L6 56L6 51ZM2 52L2 55L5 55L5 52Z" fill="#000000"/></g></g></svg>
