<?xml version="1.0" encoding="UTF-8"?>
<svg xmlns="http://www.w3.org/2000/svg" version="1.1" width="400" height="400" viewBox="0 0 400 400"><rect x="0" y="0" width="400" height="400" fill="#ffffff"/><g transform="scale(7.547)"><g transform="translate(2,2)"><path fill-rule="evenodd" d="M10 0L10 1L11 1L11 2L10 2L10 4L12 4L12 7L11 7L11 5L9 5L9 6L8 6L8 7L9 7L9 8L11 8L11 9L9 9L9 10L8 10L8 8L6 8L6 9L5 9L5 8L3 8L3 9L1 9L1 11L0 11L0 12L1 12L1 14L0 14L0 16L1 16L1 18L2 18L2 20L0 20L0 21L1 21L1 23L2 23L2 22L3 22L3 23L4 23L4 24L3 24L3 25L4 25L4 27L3 27L3 26L2 26L2 24L0 24L0 30L1 30L1 29L2 29L2 31L1 31L1 33L0 33L0 34L1 34L1 35L0 35L0 36L2 36L2 37L0 37L0 38L1 38L1 40L0 40L0 41L3 41L3 40L4 40L4 39L2 39L2 37L3 37L3 36L2 36L2 35L4 35L4 34L5 34L5 33L10 33L10 34L9 34L9 36L8 36L8 37L9 37L9 40L10 40L10 42L9 42L9 41L8 41L8 43L9 43L9 44L8 44L8 46L9 46L9 47L10 47L10 46L11 46L11 48L13 48L13 49L15 49L15 48L14 48L14 47L16 47L16 46L15 46L15 44L16 44L16 43L15 43L15 42L14 42L14 45L13 45L13 43L12 43L12 42L13 42L13 41L11 41L11 40L14 40L14 38L15 38L15 37L13 37L13 36L16 36L16 34L17 34L17 36L19 36L19 37L18 37L18 38L19 38L19 42L21 42L21 43L22 43L22 44L20 44L20 45L21 45L21 47L19 47L19 45L18 45L18 46L17 46L17 48L16 48L16 49L22 49L22 48L23 48L23 46L24 46L24 47L25 47L25 46L26 46L26 47L28 47L28 49L29 49L29 48L30 48L30 49L31 49L31 48L32 48L32 49L33 49L33 48L34 48L34 47L38 47L38 46L39 46L39 48L38 48L38 49L41 49L41 48L43 48L43 47L45 47L45 46L43 46L43 45L45 45L45 44L46 44L46 43L49 43L49 42L47 42L47 41L46 41L46 38L47 38L47 39L48 39L48 41L49 41L49 38L47 38L47 37L49 37L49 34L48 34L48 33L46 33L46 32L45 32L45 30L46 30L46 31L48 31L48 32L49 32L49 30L47 30L47 27L46 27L46 26L45 26L45 23L46 23L46 24L47 24L47 22L46 22L46 21L44 21L44 22L43 22L43 18L41 18L41 19L40 19L40 15L39 15L39 13L40 13L40 12L38 12L38 11L37 11L37 12L34 12L34 13L33 13L33 10L32 10L32 12L31 12L31 11L30 11L30 10L31 10L31 9L34 9L34 11L35 11L35 9L36 9L36 8L37 8L37 9L38 9L38 10L39 10L39 11L41 11L41 9L40 9L40 10L39 10L39 9L38 9L38 8L40 8L40 7L41 7L41 6L40 6L40 7L39 7L39 5L38 5L38 4L37 4L37 3L38 3L38 2L39 2L39 4L40 4L40 3L41 3L41 0L40 0L40 1L38 1L38 0L37 0L37 1L36 1L36 2L37 2L37 3L36 3L36 4L35 4L35 3L34 3L34 2L35 2L35 0L33 0L33 1L34 1L34 2L33 2L33 4L32 4L32 8L31 8L31 6L30 6L30 7L29 7L29 6L28 6L28 5L27 5L27 2L26 2L26 1L29 1L29 0L25 0L25 1L24 1L24 0L22 0L22 1L21 1L21 3L20 3L20 2L19 2L19 1L17 1L17 2L16 2L16 4L14 4L14 2L13 2L13 1L15 1L15 0L13 0L13 1L12 1L12 0ZM30 0L30 1L32 1L32 0ZM23 1L23 4L24 4L24 1ZM8 2L8 4L9 4L9 2ZM11 2L11 3L12 3L12 2ZM17 2L17 3L18 3L18 2ZM25 2L25 4L26 4L26 2ZM29 2L29 3L28 3L28 4L29 4L29 5L30 5L30 3L31 3L31 2ZM19 3L19 4L16 4L16 6L15 6L15 8L13 8L13 7L14 7L14 6L13 6L13 7L12 7L12 8L13 8L13 10L15 10L15 11L16 11L16 10L17 10L17 9L19 9L19 8L20 8L20 10L18 10L18 11L17 11L17 12L15 12L15 14L16 14L16 15L14 15L14 16L13 16L13 17L12 17L12 18L14 18L14 17L15 17L15 19L14 19L14 20L12 20L12 21L13 21L13 22L14 22L14 23L13 23L13 24L15 24L15 25L13 25L13 27L12 27L12 29L13 29L13 28L14 28L14 30L12 30L12 31L11 31L11 34L10 34L10 36L11 36L11 35L14 35L14 34L12 34L12 33L13 33L13 32L14 32L14 33L17 33L17 32L18 32L18 34L19 34L19 36L23 36L23 34L24 34L24 37L25 37L25 38L23 38L23 37L22 37L22 38L21 38L21 37L20 37L20 40L21 40L21 39L24 39L24 40L26 40L26 39L27 39L27 42L29 42L29 43L27 43L27 44L28 44L28 45L26 45L26 46L28 46L28 47L29 47L29 46L30 46L30 48L31 48L31 47L34 47L34 44L35 44L35 46L36 46L36 44L37 44L37 46L38 46L38 45L40 45L40 41L39 41L39 39L38 39L38 40L37 40L37 39L36 39L36 40L37 40L37 41L34 41L34 42L35 42L35 43L33 43L33 41L32 41L32 40L33 40L33 39L34 39L34 40L35 40L35 38L38 38L38 36L39 36L39 35L40 35L40 33L41 33L41 32L40 32L40 33L39 33L39 30L43 30L43 31L42 31L42 34L41 34L41 35L42 35L42 36L43 36L43 37L47 37L47 36L48 36L48 35L47 35L47 36L46 36L46 33L45 33L45 34L44 34L44 33L43 33L43 31L44 31L44 30L45 30L45 29L42 29L42 28L43 28L43 27L42 27L42 28L41 28L41 27L40 27L40 29L37 29L37 30L36 30L36 29L35 29L35 28L33 28L33 27L35 27L35 24L37 24L37 25L36 25L36 26L37 26L37 27L36 27L36 28L37 28L37 27L38 27L38 28L39 28L39 27L38 27L38 26L37 26L37 25L38 25L38 24L40 24L40 21L41 21L41 22L42 22L42 19L41 19L41 20L39 20L39 19L38 19L38 18L39 18L39 17L37 17L37 19L36 19L36 20L34 20L34 21L33 21L33 20L32 20L32 21L31 21L31 20L30 20L30 19L29 19L29 18L30 18L30 17L31 17L31 19L32 19L32 18L33 18L33 19L34 19L34 17L35 17L35 18L36 18L36 17L35 17L35 16L34 16L34 15L35 15L35 13L34 13L34 15L33 15L33 17L32 17L32 14L33 14L33 13L32 13L32 14L31 14L31 12L28 12L28 13L27 13L27 14L26 14L26 12L27 12L27 11L26 11L26 10L28 10L28 11L29 11L29 10L30 10L30 9L31 9L31 8L30 8L30 9L29 9L29 7L28 7L28 6L27 6L27 7L28 7L28 8L27 8L27 9L24 9L24 10L23 10L23 9L22 9L22 8L21 8L21 7L22 7L22 6L21 6L21 5L22 5L22 3L21 3L21 5L20 5L20 3ZM13 4L13 5L14 5L14 4ZM33 4L33 7L34 7L34 9L35 9L35 8L36 8L36 6L35 6L35 4ZM36 4L36 5L37 5L37 4ZM17 5L17 6L16 6L16 7L17 7L17 8L18 8L18 7L19 7L19 6L20 6L20 7L21 7L21 6L20 6L20 5L19 5L19 6L18 6L18 5ZM23 5L23 8L26 8L26 5ZM9 6L9 7L10 7L10 6ZM17 6L17 7L18 7L18 6ZM24 6L24 7L25 7L25 6ZM34 6L34 7L35 7L35 6ZM37 6L37 8L38 8L38 6ZM15 8L15 9L16 9L16 8ZM45 8L45 9L44 9L44 10L43 10L43 9L42 9L42 10L43 10L43 12L42 12L42 14L41 14L41 17L42 17L42 14L43 14L43 12L44 12L44 14L45 14L45 12L44 12L44 11L46 11L46 12L48 12L48 13L49 13L49 10L48 10L48 9L47 9L47 8ZM4 9L4 10L2 10L2 12L3 12L3 16L4 16L4 15L6 15L6 16L7 16L7 17L6 17L6 18L3 18L3 17L2 17L2 18L3 18L3 20L2 20L2 21L3 21L3 22L4 22L4 21L5 21L5 20L4 20L4 19L6 19L6 20L7 20L7 19L6 19L6 18L8 18L8 22L9 22L9 27L10 27L10 28L8 28L8 27L6 27L6 28L5 28L5 27L4 27L4 28L3 28L3 31L2 31L2 33L1 33L1 34L4 34L4 32L5 32L5 31L4 31L4 28L5 28L5 29L6 29L6 30L7 30L7 29L10 29L10 30L9 30L9 31L8 31L8 32L9 32L9 31L10 31L10 30L11 30L11 26L12 26L12 22L11 22L11 20L9 20L9 19L10 19L10 16L12 16L12 15L10 15L10 16L8 16L8 14L9 14L9 13L5 13L5 12L3 12L3 11L6 11L6 12L8 12L8 10L7 10L7 9L6 9L6 10L5 10L5 9ZM11 9L11 10L9 10L9 11L12 11L12 9ZM28 9L28 10L29 10L29 9ZM45 9L45 10L46 10L46 9ZM6 10L6 11L7 11L7 10ZM24 10L24 11L25 11L25 10ZM13 11L13 12L14 12L14 11ZM18 11L18 12L17 12L17 13L21 13L21 15L22 15L22 17L21 17L21 18L24 18L24 17L25 17L25 18L27 18L27 19L26 19L26 21L25 21L25 20L24 20L24 21L23 21L23 20L22 20L22 19L20 19L20 17L19 17L19 16L20 16L20 15L18 15L18 14L17 14L17 17L16 17L16 19L15 19L15 22L16 22L16 21L17 21L17 22L19 22L19 23L20 23L20 21L21 21L21 24L18 24L18 23L15 23L15 24L17 24L17 25L21 25L21 26L19 26L19 27L18 27L18 26L17 26L17 27L18 27L18 29L17 29L17 28L15 28L15 27L16 27L16 25L15 25L15 26L14 26L14 28L15 28L15 30L14 30L14 32L16 32L16 30L18 30L18 29L19 29L19 27L20 27L20 28L22 28L22 29L23 29L23 30L22 30L22 31L24 31L24 32L25 32L25 33L24 33L24 34L25 34L25 33L26 33L26 30L27 30L27 31L28 31L28 30L30 30L30 29L29 29L29 26L30 26L30 23L29 23L29 24L28 24L28 22L26 22L26 21L27 21L27 19L28 19L28 20L29 20L29 19L28 19L28 18L29 18L29 16L30 16L30 15L31 15L31 14L30 14L30 13L28 13L28 14L27 14L27 15L26 15L26 16L24 16L24 17L23 17L23 14L24 14L24 13L25 13L25 12L22 12L22 13L21 13L21 12L19 12L19 11ZM11 12L11 14L12 14L12 12ZM37 12L37 14L38 14L38 12ZM4 13L4 14L5 14L5 13ZM13 13L13 14L14 14L14 13ZM1 14L1 16L2 16L2 14ZM6 14L6 15L7 15L7 14ZM28 14L28 16L29 16L29 15L30 15L30 14ZM47 14L47 15L46 15L46 16L44 16L44 15L43 15L43 16L44 16L44 18L45 18L45 20L46 20L46 19L48 19L48 20L49 20L49 18L48 18L48 17L49 17L49 14ZM36 15L36 16L38 16L38 15ZM46 16L46 17L45 17L45 18L47 18L47 16ZM18 17L18 18L17 18L17 19L16 19L16 20L17 20L17 21L18 21L18 20L17 20L17 19L19 19L19 20L20 20L20 19L19 19L19 17ZM27 17L27 18L28 18L28 17ZM36 20L36 21L34 21L34 23L33 23L33 22L31 22L31 21L30 21L30 22L31 22L31 23L33 23L33 24L34 24L34 23L37 23L37 24L38 24L38 22L39 22L39 20L38 20L38 22L37 22L37 20ZM6 21L6 22L7 22L7 21ZM9 21L9 22L10 22L10 23L11 23L11 22L10 22L10 21ZM22 21L22 22L23 22L23 21ZM48 22L48 23L49 23L49 22ZM5 23L5 26L8 26L8 23ZM23 23L23 26L26 26L26 23ZM41 23L41 26L44 26L44 23ZM6 24L6 25L7 25L7 24ZM10 24L10 25L11 25L11 24ZM21 24L21 25L22 25L22 24ZM24 24L24 25L25 25L25 24ZM27 24L27 26L29 26L29 25L28 25L28 24ZM42 24L42 25L43 25L43 24ZM48 24L48 25L47 25L47 26L48 26L48 27L49 27L49 26L48 26L48 25L49 25L49 24ZM31 25L31 26L32 26L32 27L33 27L33 26L32 26L32 25ZM21 26L21 27L22 27L22 28L23 28L23 29L24 29L24 30L25 30L25 28L27 28L27 30L28 30L28 27L25 27L25 28L24 28L24 27L22 27L22 26ZM6 28L6 29L7 29L7 28ZM31 28L31 31L32 31L32 32L30 32L30 31L29 31L29 32L30 32L30 34L28 34L28 33L27 33L27 34L26 34L26 35L25 35L25 37L26 37L26 38L27 38L27 39L28 39L28 38L29 38L29 39L30 39L30 40L32 40L32 39L31 39L31 37L32 37L32 38L33 38L33 35L34 35L34 36L35 36L35 37L37 37L37 36L35 36L35 35L38 35L38 34L39 34L39 33L38 33L38 34L37 34L37 31L36 31L36 30L35 30L35 29L34 29L34 30L35 30L35 32L33 32L33 28ZM48 28L48 29L49 29L49 28ZM20 29L20 32L19 32L19 33L20 33L20 35L22 35L22 34L21 34L21 29ZM6 31L6 32L7 32L7 31ZM22 32L22 33L23 33L23 32ZM32 32L32 33L33 33L33 34L34 34L34 33L33 33L33 32ZM35 32L35 33L36 33L36 32ZM6 34L6 35L5 35L5 39L7 39L7 38L6 38L6 37L7 37L7 36L6 36L6 35L8 35L8 34ZM30 34L30 37L29 37L29 35L28 35L28 37L27 37L27 35L26 35L26 37L27 37L27 38L28 38L28 37L29 37L29 38L30 38L30 37L31 37L31 35L32 35L32 34ZM42 34L42 35L44 35L44 34ZM40 36L40 37L39 37L39 38L40 38L40 37L41 37L41 36ZM10 37L10 39L11 39L11 37ZM12 37L12 39L13 39L13 37ZM16 37L16 38L17 38L17 37ZM41 38L41 39L42 39L42 40L43 40L43 39L44 39L44 40L45 40L45 38L43 38L43 39L42 39L42 38ZM15 39L15 40L16 40L16 42L17 42L17 44L18 44L18 42L17 42L17 41L18 41L18 40L17 40L17 39ZM6 40L6 41L7 41L7 40ZM28 40L28 41L29 41L29 40ZM21 41L21 42L22 42L22 41ZM23 41L23 44L26 44L26 41ZM30 41L30 42L32 42L32 41ZM37 41L37 42L36 42L36 43L35 43L35 44L36 44L36 43L37 43L37 44L39 44L39 41ZM41 41L41 44L44 44L44 41ZM24 42L24 43L25 43L25 42ZM42 42L42 43L43 43L43 42ZM29 43L29 45L28 45L28 46L29 46L29 45L30 45L30 46L33 46L33 45L31 45L31 44L32 44L32 43L31 43L31 44L30 44L30 43ZM9 44L9 46L10 46L10 45L12 45L12 44ZM47 44L47 45L46 45L46 46L47 46L47 45L48 45L48 47L46 47L46 48L45 48L45 49L46 49L46 48L48 48L48 49L49 49L49 44ZM40 46L40 47L41 47L41 46ZM42 46L42 47L43 47L43 46ZM21 47L21 48L22 48L22 47ZM9 48L9 49L10 49L10 48ZM24 48L24 49L27 49L27 48ZM35 48L35 49L37 49L37 48ZM0 0L0 7L7 7L7 0ZM1 1L1 6L6 6L6 1ZM2 2L2 5L5 5L5 2ZM42 0L42 7L49 7L49 0ZM43 1L43 6L48 6L48 1ZM44 2L44 5L47 5L47 2ZM0 42L0 49L7 49L7 42ZM1 43L1 48L6 48L6 43ZM2 44L2 47L5 47L5 44Z" fill="#000000"/></g></g></svg>
